<svg width="309" height="1921" viewBox="0 0 309 1921" fill="none" xmlns="http://www.w3.org/2000/svg" preserveAspectRatio="none">
<path d="M11 264.966V264.94L10.9974 264.915L0.5 162.567L0.5 5C0.5 2.51477 2.51472 0.5 5 0.5H304C306.485 0.5 308.5 2.51477 308.5 5V162.562L296.004 264.905L296 264.935V264.966V959.905C296 960.34 296.052 960.773 296.154 961.196L308.374 1011.78C308.458 1012.13 308.5 1012.48 308.5 1012.84L308.5 1253.86C308.5 1254.42 308.398 1254.97 308.199 1255.48L296.368 1286.19C296.125 1286.82 296 1287.49 296 1288.17V1401.45C296 1404.48 298.462 1406.95 301.5 1406.95H304C306.485 1406.95 308.5 1408.96 308.5 1411.45V1783.41C308.5 1785.89 306.485 1787.91 304 1787.91H301.5C298.462 1787.91 296 1790.37 296 1793.41V1861.02C296 1864.06 298.462 1866.52 301.5 1866.52H304C306.485 1866.52 308.5 1868.54 308.5 1871.02V1916C308.5 1918.49 306.485 1920.5 304 1920.5H5C2.51472 1920.5 0.5 1918.49 0.5 1916L0.5 1871.02C0.5 1868.54 2.51472 1866.52 5 1866.52H12C15.0376 1866.52 17.5 1864.06 17.5 1861.02V1793.41C17.5 1790.37 15.0376 1787.91 12 1787.91H5C2.51472 1787.91 0.5 1785.89 0.5 1783.41L0.5 1395.62C0.5 1393.14 2.51472 1391.12 5 1391.12H12C15.0376 1391.12 17.5 1388.66 17.5 1385.62L17.5 1288.47C17.5 1287.58 17.2844 1286.7 16.8716 1285.91L1.01413 1255.65C0.676416 1255.01 0.5 1254.29 0.5 1253.56L0.5 1012.75C0.5 1012.45 0.530111 1012.15 0.589882 1011.85L10.8901 961.092C10.9632 960.732 11 960.365 11 959.998L11 264.966Z" fill="#0E0E0E" fill-opacity="0.75" stroke="#95CDFF"/>
</svg>
