<svg width="1026" height="628" viewBox="0 0 1026 628" fill="none" xmlns="http://www.w3.org/2000/svg" preserveAspectRatio="none">
<path d="M278.273 0.5C280.758 0.5 282.773 2.51472 282.773 5V13C282.773 16.0376 285.235 18.5 288.273 18.5H316.694C317.508 18.5 318.312 18.3192 319.048 17.9706L355.016 0.933181C355.618 0.647955 356.276 0.5 356.943 0.5H483.833C484.731 0.5 485.608 0.768694 486.352 1.27151L510.452 17.557C511.361 18.1716 512.433 18.5 513.531 18.5H920.929C921.706 18.5 922.473 18.3356 923.182 18.0175L961.319 0.894787C961.898 0.634545 962.527 0.5 963.162 0.5H1021C1023.49 0.5 1025.5 2.51472 1025.5 5V623C1025.5 625.485 1023.49 627.5 1021 627.5H963.728C962.771 627.5 961.838 627.195 961.067 626.629L937.116 609.065C936.172 608.373 935.033 608 933.863 608H507.524C506.096 608 504.724 608.555 503.698 609.549L486.47 626.233C485.631 627.045 484.508 627.5 483.339 627.5H356.964C356.285 627.5 355.615 627.346 355.005 627.051L316.749 608.549C316.002 608.188 315.184 608 314.354 608H279.821C276.784 608 274.321 610.462 274.321 613.5V623C274.321 625.485 272.307 627.5 269.821 627.5H75.8182C73.3329 627.5 71.3182 625.485 71.3182 623V613.5C71.3182 610.462 68.8557 608 65.8182 608H34.3636C31.3261 608 28.8636 610.462 28.8636 613.5V623C28.8636 625.485 26.8489 627.5 24.3636 627.5H5C2.51472 627.5 0.5 625.485 0.5 623V5.00002C0.5 2.51473 2.51472 0.5 5 0.5H24.3636C26.8489 0.5 28.8636 2.51472 28.8636 5V13C28.8636 16.0376 31.3261 18.5 34.3636 18.5H65.8182C68.8558 18.5 71.3182 16.0376 71.3182 13V5C71.3182 2.51472 73.3329 0.5 75.8182 0.5H278.273Z" fill="#0E0E0E" fill-opacity="0.75" stroke="#95CDFF"/>
</svg>
