<svg width="309" height="52" viewBox="0 0 309 52" fill="none" xmlns="http://www.w3.org/2000/svg">
<path d="M10.75 264.966V264.953L10.7487 264.94L0.25 162.592V162.58L0.25 5C0.25 2.37671 2.37665 0.25 5 0.25H304C306.623 0.25 308.75 2.37671 308.75 5V162.577V162.592L296.252 264.935L296.25 264.95V264.966V959.905C296.25 960.32 296.299 960.734 296.397 961.137L308.617 1011.72C308.705 1012.09 308.75 1012.46 308.75 1012.84L308.75 1253.86C308.75 1254.45 308.642 1255.03 308.432 1255.57L296.601 1286.28C296.369 1286.88 296.25 1287.52 296.25 1288.17V1401.45C296.25 1404.35 298.601 1406.7 301.5 1406.7H304C306.623 1406.7 308.75 1408.82 308.75 1411.45V1783.41C308.75 1786.03 306.623 1788.16 304 1788.16H301.5C298.601 1788.16 296.25 1790.51 296.25 1793.41V1861.02C296.25 1863.92 298.601 1866.27 301.5 1866.27H304C306.623 1866.27 308.75 1868.4 308.75 1871.02V1916C308.75 1918.62 306.623 1920.75 304 1920.75H5C2.37665 1920.75 0.25 1918.62 0.25 1916L0.25 1871.02C0.25 1868.4 2.37665 1866.27 5 1866.27H12C14.8995 1866.27 17.25 1863.92 17.25 1861.02V1793.41C17.25 1790.51 14.8995 1788.16 12 1788.16H5C2.37665 1788.16 0.25 1786.03 0.25 1783.41L0.25 1395.62C0.25 1393 2.37664 1390.87 5 1390.87H12C14.8995 1390.87 17.25 1388.52 17.25 1385.62L17.25 1288.47C17.25 1287.62 17.0442 1286.78 16.6502 1286.03L0.79269 1255.77C0.436218 1255.09 0.25 1254.33 0.25 1253.56L0.25 1012.75C0.25 1012.43 0.281784 1012.11 0.344875 1011.8L10.6451 961.042L10.4001 960.992L10.6451 961.042C10.7149 960.698 10.75 960.349 10.75 959.998L10.75 264.966Z" fill="#0E0E0E" fill-opacity="0.75" stroke="#95CDFF" stroke-width="0.5"/>
</svg>
